#!OML:ASF E:\VariousWalksJay\Project 1\Capture day 1\Session 1\Actor2.ASF
:FULLY-SPECIFIED
:DEGREES
911
root 5.08626 16.7025 -0.253766 189.565 -20.306 -172.212
lowerback -2.56967 0.824284 8.26749
upperback -1.84364 0.893791 -1.57587
thorax -0.319577 0.350369 -6.27048
lowerneck 0.410536 -7.2041 -7.46377
upperneck 2.62411 -12.6428 26.0548
head 2.91186 -6.76702 8.8668
rclavicle -4.77083e-015 -3.18055e-014
rhumerus -35.7838 41.4937 -97.7291
rradius 49.9446
rwrist -1.49409
rhand 11.3433 -7.38724
rfingers 7.12502
rthumb 36.3993 -33.6047
lclavicle -4.77083e-015 -3.18055e-014
lhumerus -14.9626 -22.5444 77.2186
lradius 38.1254
lwrist 14.0686
lhand -12.1274 -7.37984
lfingers 7.12502
lthumb 13.9342 22.1333
rfemur 16.893 -6.32546 35.2781
rtibia -3.81667e-014
rfoot -17.9495 -5.07063
rtoes -12.2195
lfemur -48.105 -12.3281 -5.70535
ltibia 48.7758
lfoot -12.9521 1.94239
ltoes -5.89238
912
root 5.07885 16.6974 -0.327604 189.915 -19.9821 -172.374
lowerback -2.34144 1.00941 8.15683
upperback -1.71248 1.1654 -1.61233
thorax -0.266358 0.497147 -6.24018
lowerneck 0.559022 -7.21947 -7.51657
upperneck 3.12838 -12.7835 26.0283
head 3.05517 -6.81303 8.86112
rclavicle -4.01545e-014 -8.50798e-014
rhumerus -35.219 41.4818 -97.1525
rradius 50.1394
rwrist -1.60134
rhand 11.6744 -7.55603
rfingers 7.12502
rthumb 36.7127 -33.6942
lclavicle -4.01545e-014 -8.50798e-014
lhumerus -14.763 -22.1771 76.3373
lradius 38.0401
lwrist 13.9942
lhand -12.1792 -7.2199
lfingers 7.12502
lthumb 13.8843 22.2966
rfemur 16.9251 -6.0456 35.0363
rtibia 3.18055e-015
rfoot -17.7791 -4.67299
rtoes -12.6503
lfemur -48.2183 -12.561 -5.67354
ltibia 49.1027
lfoot -13.3627 2.62265
ltoes -5.94373
913
root 5.06888 16.691 -0.407245 190.312 -19.6865 -172.576
lowerback -2.21433 1.18915 8.00989
upperback -1.59424 1.42017 -1.65265
thorax -0.173967 0.636135 -6.19258
lowerneck 0.692004 -7.24806 -7.58447
upperneck 3.67564 -12.9617 26.0136
head 3.22259 -6.87578 8.85842
rclavicle -6.75868e-015 -2.38542e-014
rhumerus -34.6371 41.3527 -96.5622
rradius 50.3291
rwrist -1.70554
rhand 11.8027 -7.72609
rfingers 7.12502
rthumb 36.8341 -33.8333
lclavicle -6.75868e-015 -2.38542e-014
lhumerus -14.6529 -21.7553 75.4727
lradius 37.9085
lwrist 13.934
lhand -12.1798 -7.0308
lfingers 7.12502
lthumb 13.8838 22.4858
rfemur 16.9319 -5.79038 34.7546
rtibia 6.36111e-015
rfoot -17.6077 -4.27834
rtoes -13.0163
lfemur -48.3301 -12.8133 -5.68882
ltibia 49.411
lfoot -13.8427 3.32888
ltoes -5.9851
914
root 5.05713 16.6829 -0.492405 190.744 -19.4163 -172.769
lowerback -2.18913 1.36419 7.86351
upperback -1.48887 1.65896 -1.68556
thorax -0.0415585 0.767534 -6.13575
lowerneck 0.815024 -7.28569 -7.65374
upperneck 4.22033 -13.1601 26.0095
head 3.39623 -6.94972 8.85788
rclavicle 6.36111e-015 1.11319e-014
rhumerus -34.0593 41.1254 -95.9912
rradius 50.499
rwrist -1.78777
rhand 11.6323 -7.88685
rfingers 7.12502
rthumb 36.6728 -34.0352
lclavicle 6.36111e-015 1.11319e-014
lhumerus -14.6359 -21.2829 74.6306
lradius 37.7518
lwrist 13.8944
lhand -12.1573 -6.81363
lfingers 7.12502
lthumb 13.9054 22.7014
rfemur 16.9075 -5.55126 34.4875
rtibia 5.725e-014
rfoot -17.4246 -3.89457
rtoes -13.3117
lfemur -48.4625 -13.0467 -5.70491
ltibia 49.7229
lfoot -14.3779 4.0267
ltoes -6.00406
915
root 5.04423 16.6729 -0.582509 191.191 -19.181 -172.935
lowerback -2.24398 1.53413 7.7388
upperback -1.38575 1.88344 -1.71113
thorax 0.130496 0.892604 -6.08131
lowerneck 0.908467 -7.33891 -7.71281
upperneck 4.715 -13.3741 26.0183
head 3.56479 -7.03315 8.85748
rclavicle 3.91606e-014 1.51076e-014
rhumerus -33.4796 40.8106 -95.4428
rradius 50.6403
rwrist -1.84947
rhand 11.1105 -8.01368
rfingers 7.12502
rthumb 36.1788 -34.2861
lclavicle 3.91606e-014 1.51076e-014
lhumerus -14.6891 -20.7898 73.8171
lradius 37.5835
lwrist 13.8751
lhand -12.1456 -6.60141
lfingers 7.12502
lthumb 13.9167 22.9129
rfemur 16.864 -5.33846 34.2574
rtibia -6.36111e-015
rfoot -17.2211 -3.52972
rtoes -13.5881
lfemur -48.6175 -13.2483 -5.70764
ltibia 50.0522
lfoot -14.9537 4.68806
ltoes -6.00986
916
root 5.03131 16.6613 -0.676759 191.616 -18.9814 -173.05
lowerback -2.34256 1.69561 7.65008
upperback -1.28191 2.09228 -1.7256
thorax 0.325227 1.01018 -6.03392
lowerneck 1.00017 -7.39835 -7.75509
upperneck 5.1153 -13.5791 26.0459
head 3.70586 -7.11796 8.86161
rclavicle -6.77856e-014 1.59028e-015
rhumerus -32.9273 40.4362 -94.9557
rradius 50.7488
rwrist -1.88919
rhand 10.2202 -8.09756
rfingers 7.12502
rthumb 35.3352 -34.5747
lclavicle -6.77856e-014 1.59028e-015
lhumerus -14.8175 -20.2873 73.0406
lradius 37.4117
lwrist 13.8537
lhand -12.1651 -6.40703
lfingers 7.12502
lthumb 13.8979 23.1086
rfemur 16.8273 -5.15579 34.0868
rtibia 6.36111e-015
rfoot -16.9841 -3.1777
rtoes -13.8559
lfemur -48.7712 -13.3957 -5.68264
ltibia 50.4
lfoot -15.557 5.28092
ltoes -6.00318
917
root 5.01964 16.6484 -0.773791 192.008 -18.8083 -173.1
lowerback -2.45342 1.85126 7.60843
upperback -1.18144 2.29142 -1.73082
thorax 0.522527 1.1224 -6.00243
lowerneck 1.08504 -7.46333 -7.76932
upperneck 5.40886 -13.7678 26.0872
head 3.81412 -7.20028 8.86661
rclavicle 5.42682e-014 4.77083e-015
rhumerus -32.4125 40.0163 -94.5535
rradius 50.8171
rwrist -1.91131
rhand 9.01445 -8.11362
rfingers 7.12502
rthumb 34.191 -34.8548
lclavicle 5.42682e-014 4.77083e-015
lhumerus -14.9924 -19.7867 72.3049
lradius 37.2095
lwrist 13.8028
lhand -12.2238 -6.2273
lfingers 7.12502
lthumb 13.8414 23.2922
rfemur 16.8041 -4.9929 33.9922
rtibia 6.04305e-014
rfoot -16.6944 -2.83083
rtoes -14.1554
lfemur -48.9144 -13.46 -5.6162
ltibia 50.7563
lfoot -16.1706 5.77759
ltoes -5.9917
918
root 5.00997 16.6356 -0.872857 192.348 -18.6554 -173.111
lowerback -2.54006 2.00013 7.58707
upperback -1.0836 2.48313 -1.73692
thorax 0.702882 1.22994 -5.98342
lowerneck 1.17532 -7.52903 -7.76407
upperneck 5.58691 -13.9302 26.1472
head 3.88366 -7.27622 8.87728
rclavicle 6.55989e-015 -5.56597e-015
rhumerus -31.9461 39.5833 -94.2553
rradius 50.8372
rwrist -1.90944
rhand 7.55922 -8.05049
rfingers 7.12502
rthumb 32.8078 -35.091
lclavicle 6.55989e-015 -5.56597e-015
lhumerus -15.2014 -19.3108 71.6217
lradius 36.9668
lwrist 13.7088
lhand -12.314 -6.05511
lfingers 7.12502
lthumb 13.7544 23.4703
rfemur 16.8189 -4.85309 33.9402
rtibia -1.90833e-014
rfoot -16.3321 -2.47189
rtoes -14.4564
lfemur -49.0063 -13.4373 -5.54468
ltibia 51.0985
lfoot -16.7865 6.16169
ltoes -5.97129
919
root 5.00293 16.6238 -0.973519 192.631 -18.512 -173.108
lowerback -2.57485 2.14241 7.56195
upperback -0.989738 2.67061 -1.75344
thorax 0.849534 1.33384 -5.97439
lowerneck 1.25733 -7.5973 -7.74099
upperneck 5.66736 -14.0693 26.2154
head 3.92184 -7.34492 8.8891
rclavicle -2.82274e-014 -2.70347e-014
rhumerus -31.5301 39.1736 -94.0709
rradius 50.8086
rwrist -1.88912
rhand 5.95732 -7.92436
rfingers 7.12502
rthumb 31.2827 -35.2716
lclavicle -2.82274e-014 -2.70347e-014
lhumerus -15.4264 -18.8719 70.9989
lradius 36.6711
lwrist 13.5609
lhand -12.4153 -5.88477
lfingers 7.12502
lthumb 13.6568 23.6472
rfemur 16.8859 -4.7336 33.9033
rtibia 4.45278e-014
rfoot -15.8782 -2.09879
rtoes -14.7811
lfemur -49.0141 -13.3225 -5.49717
ltibia 51.4008
lfoot -17.3973 6.42544
ltoes -5.94213
